<?xml version="1.0" standalone="no"?>
<!DOCTYPE svg PUBLIC "-//W3C//DTD SVG 1.1//EN" "http://www.w3.org/Graphics/SVG/1.1/DTD/svg11.dtd" >
<svg>
<metadata>
Created by FontForge 20110222 at Fri Dec 20 00:04:59 2013
 By Orthosie Webhosting
Advantage Demi is a product of MicroLogic Software, Inc.
</metadata>
<defs>
<font id="AdvantageBoldBold" horiz-adv-x="1020" >
  <font-face 
    font-family="AdvantageBoldBold"
    font-weight="700"
    font-stretch="normal"
    units-per-em="2048"
    panose-1="2 11 8 0 0 0 0 2 0 0"
    ascent="1638"
    descent="-410"
    x-height="1086"
    cap-height="1443"
    bbox="-337 -483 2552.01 1943"
    underline-thickness="150"
    underline-position="-227"
    unicode-range="U+0020-25CA"
  />
<missing-glyph horiz-adv-x="1372" 
d="M1200 1193v-1032h-1032v1032h1032zM258 1107v-860h852v860h-852z" />
    <glyph glyph-name=".notdef" horiz-adv-x="1372" 
d="M1200 1193v-1032h-1032v1032h1032zM258 1107v-860h852v860h-852z" />
    <glyph glyph-name="glyph1" horiz-adv-x="0" 
 />
    <glyph glyph-name="nonmarkingreturn" horiz-adv-x="682" 
 />
    <glyph glyph-name="space" unicode=" " horiz-adv-x="593" 
 />
    <glyph glyph-name="space" unicode="&#xa0;" horiz-adv-x="593" 
 />
    <glyph glyph-name="exclam" unicode="!" horiz-adv-x="623" 
d="M184 394v1049h250v-1049h-250zM184 267h250v-267h-250v267z" />
    <glyph glyph-name="quotedbl" unicode="&#x22;" horiz-adv-x="643" 
d="M86 1422h160v-553h-160v553zM393 1422h160v-553h-160v553z" />
    <glyph glyph-name="numbersign" unicode="#" horiz-adv-x="1569" 
d="M205 845l61 168h312l155 434h189l-156 -434h254l156 434h184l-152 -434h291l-61 -168h-291l-90 -254h307l-61 -168h-304l-155 -431h-189l156 431h-254l-156 -431h-188l156 431h-303l65 168h295l94 254h-315zM614 591h258l91 254h-263z" />
    <glyph glyph-name="dollar" unicode="$" horiz-adv-x="1184" 
d="M143 443h267q0 -82 43 -136t129 -56q94 3 135.5 61.5t40.5 135.5q-2 79 -49 116t-121 58.5t-153 50t-144 90.5q-53 53 -80 121.5t-27 148.5q0 130 76 239.5t223 153.5v218h234v-218q131 -31 208 -135t79 -237h-250q-1 63 -45 100.5t-119 38.5q-78 -3 -119 -48.5
t-41 -103.5q0 -69 49 -101t126 -49.5t162 -48t159 -100.5q63 -63 87 -127t23 -151q1 -156 -75 -275t-244 -167v-260h-234v251q-177 38 -259 157t-81 273z" />
    <glyph glyph-name="percent" unicode="%" horiz-adv-x="1790" 
d="M426 -25l778 1488h156l-778 -1488h-156zM614 1086q0 72 -42.5 130.5t-125.5 62.5q-80 -4 -125.5 -59.5t-46.5 -120.5q1 -71 44.5 -130t123.5 -63q84 3 128 57.5t44 122.5zM90 1095q0 136 88.5 248.5t263.5 119.5q184 -7 271 -119t86 -245q1 -142 -85 -256t-272 -121
q-180 6 -266.5 118.5t-85.5 254.5zM983 341q-1 142 85.5 256t266.5 121q186 -7 272 -121t85 -256q1 -133 -86 -245.5t-271 -120.5q-175 8 -263.5 119t-88.5 247zM1339 157q83 4 125.5 62.5t42.5 129.5q0 68 -44 125t-128 60q-80 -4 -123.5 -65t-44.5 -132q1 -65 46.5 -120.5
t125.5 -59.5z" />
    <glyph glyph-name="ampersand" unicode="&#x26;" horiz-adv-x="1327" 
d="M381 1123q0 -55 25.5 -90t80.5 -82q71 39 101.5 76.5t29.5 87.5q0 49 -29 87t-85 40q-59 -2 -91 -39t-32 -80zM307 820q-77 69 -116 138.5t-39 160.5q2 132 96.5 239.5t259.5 113.5q155 -6 242.5 -110t89.5 -230q0 -99 -54 -180t-159 -148l200 -197l140 353h254
l-205 -504l332 -287l-172 -189l-291 263q-52 -109 -155 -188t-259 -84q-201 9 -311 143.5t-111 296.5q1 125 69 224.5t189 184.5zM455 636q-96 -63 -129 -115.5t-31 -109.5q0 -71 46.5 -130t133.5 -63q83 4 138 62.5t83 126.5z" />
    <glyph glyph-name="quotesingle" unicode="'" horiz-adv-x="332" 
d="M86 1422h160v-553h-160v553z" />
    <glyph glyph-name="parenleft" unicode="(" horiz-adv-x="606" 
d="M94 898q-1 173 103 335.5t327 233.5v-266q-96 -63 -133 -155t-35 -189v-684q-2 -97 35 -187t133 -154v-270q-226 80 -329 240.5t-101 329.5v766z" />
    <glyph glyph-name="parenright" unicode=")" horiz-adv-x="606" 
d="M508 902v-766q2 -168 -98 -326.5t-328 -247.5v270q96 64 131 156t33 189v684q2 97 -33 187t-131 153v271q223 -72 325 -234.5t101 -335.5z" />
    <glyph glyph-name="asterisk" unicode="*" 
d="M147 1242l275 -90v291h168v-295l274 94l58 -164l-287 -78l188 -249l-139 -107l-180 258l-176 -250l-144 99l193 245l-283 82z" />
    <glyph glyph-name="plus" unicode="+" horiz-adv-x="1700" 
d="M254 685h512v524h164v-524h512v-164h-512v-521h-164v521h-512v164z" />
    <glyph glyph-name="comma" unicode="," horiz-adv-x="590" 
d="M168 -262v143q51 3 67 39t15 80h-82v267h250v-292q2 -94 -54.5 -162t-195.5 -75z" />
    <glyph glyph-name="hyphen" unicode="-" horiz-adv-x="692" 
d="M90 661h508v-234h-508v234z" />
    <glyph glyph-name="hyphen" unicode="&#xad;" horiz-adv-x="692" 
d="M90 661h508v-234h-508v234z" />
    <glyph glyph-name="period" unicode="." horiz-adv-x="590" 
d="M418 0h-250v267h250v-267z" />
    <glyph glyph-name="slash" unicode="/" horiz-adv-x="565" 
d="M-42 -188l468 1631h135l-475 -1631h-128z" />
    <glyph glyph-name="zero" unicode="0" horiz-adv-x="1184" 
d="M86 448v569q2 181 133 314.5t367 140.5q238 -6 372 -140.5t136 -318.5v-606q-4 -175 -139.5 -300t-360.5 -132q-252 8 -380 146.5t-128 326.5zM365 452q2 -100 64 -162t165 -64q110 3 165.5 71.5t55.5 166.5v528q0 87 -56 154.5t-169 71.5q-111 -3 -168 -72t-57 -162
v-532z" />
    <glyph glyph-name="one" unicode="1" horiz-adv-x="1184" 
d="M504 0v1234h-254v209h524v-1443h-270z" />
    <glyph glyph-name="two" unicode="2" horiz-adv-x="1184" 
d="M111 271q235 217 372.5 347.5t202 202t83.5 116.5t17 92q0 71 -46.5 128.5t-141.5 60.5q-100 -5 -144.5 -66t-43.5 -119v-57h-279q-3 171 105.5 328t357.5 168q226 -7 348 -140t123 -303q14 -136 -100 -276.5t-527 -497.5h623v-255h-950v271z" />
    <glyph glyph-name="three" unicode="3" horiz-adv-x="1184" 
d="M221 1086v41q2 129 98.5 234t270.5 111q176 -5 274 -111.5t99 -249.5q1 -88 -34 -153.5t-114 -116.5q134 -54 192.5 -156t57.5 -233q-1 -183 -123 -325.5t-348 -151.5q-253 7 -367 145t-112 340h262q0 -80 50 -154.5t155 -79.5q113 5 167 80t54 166q-1 103 -62.5 165
t-167.5 64h-81v238h65q82 2 117.5 48t34.5 112q0 48 -30.5 86.5t-92.5 40.5q-64 -2 -92 -43.5t-27 -96.5h-246z" />
    <glyph glyph-name="four" unicode="4" horiz-adv-x="1184" 
d="M86 456l627 987h254v-987h123v-238h-123v-218h-246v218h-635v238zM332 456h389v614z" />
    <glyph glyph-name="five" unicode="5" horiz-adv-x="1184" 
d="M135 693l139 750h680v-246h-499l-45 -254q48 28 98 40.5t110 12.5q215 -7 344 -157t132 -355q0 -185 -132 -341.5t-397 -167.5q-227 11 -359.5 157.5t-135.5 315.5h266q3 -79 69.5 -148t167.5 -74q117 5 177.5 86t60.5 181q-1 107 -65 176.5t-185 72.5q-69 -1 -114 -28.5
t-78 -73.5z" />
    <glyph glyph-name="six" unicode="6" horiz-adv-x="1184" 
d="M594 734q-115 -5 -178 -80t-64 -166q0 -91 61 -173.5t181 -88.5q103 4 165 77t64 169q1 97 -53 177t-176 85zM688 964q203 -11 308 -164t106 -312q-3 -201 -139 -352.5t-369 -160.5q-236 9 -372.5 155.5t-139.5 341.5q-11 124 87.5 304.5t432.5 666.5h287l-328 -492
q20 1 56 6.5t71 6.5z" />
    <glyph glyph-name="seven" unicode="7" horiz-adv-x="1184" 
d="M201 1443h827v-262l-516 -1181h-283l541 1193h-569v250z" />
    <glyph glyph-name="eight" unicode="8" horiz-adv-x="1184" 
d="M586 1230q-60 -3 -97 -46.5t-38 -92.5q0 -58 32 -103.5t99 -48.5q73 1 108 39t35 100q1 61 -31 105.5t-108 46.5zM586 644q-101 -4 -153 -67.5t-52 -141.5q1 -83 56 -148t149 -69q88 2 145.5 61t59.5 156q-1 91 -55 149t-150 60zM336 808q-85 51 -123 129.5t-37 157.5
q4 155 118 263.5t296 113.5q195 -5 301.5 -117t107.5 -264q1 -92 -39 -163t-129 -120q112 -54 174.5 -141t63.5 -224q1 -177 -116.5 -318t-362.5 -150q-240 8 -362 145.5t-122 322.5q1 125 60 213.5t170 151.5z" />
    <glyph glyph-name="nine" unicode="9" horiz-adv-x="1184" 
d="M590 710q114 5 177 80t64 165q0 92 -60.5 174.5t-180.5 88.5q-103 -4 -167.5 -77t-66.5 -169q-1 -97 55.5 -177t178.5 -85zM618 493q-21 -1 -51.5 -6.5t-70.5 -6.5q-204 11 -310.5 164t-107.5 311q3 202 141 355.5t371 161.5q236 -8 372.5 -156.5t139.5 -343.5
q8 -130 -98.5 -321t-421.5 -651h-291z" />
    <glyph glyph-name="colon" unicode=":" horiz-adv-x="623" 
d="M184 771v270h250v-270h-250zM184 267h250v-267h-250v267z" />
    <glyph glyph-name="semicolon" unicode=";" horiz-adv-x="623" 
d="M184 771v270h250v-270h-250zM184 0v267h250v-267q1 -118 -57.5 -188.5t-192.5 -73.5v143q51 4 69 35.5t17 83.5h-86z" />
    <glyph glyph-name="less" unicode="&#x3c;" horiz-adv-x="1700" 
d="M1430 1164v-180l-934 -381l934 -381v-180l-1168 483v156z" />
    <glyph glyph-name="equal" unicode="=" horiz-adv-x="1700" 
d="M254 726v164h1188v-164h-1188zM254 312v164h1188v-164h-1188z" />
    <glyph glyph-name="greater" unicode="&#x3e;" horiz-adv-x="1700" 
d="M266 1164l1168 -483v-156l-1168 -483v180l934 381l-934 381v180z" />
    <glyph glyph-name="question" unicode="?" horiz-adv-x="1040" 
d="M61 1005q1 179 118.5 319t336.5 148q228 -6 343.5 -134.5t115.5 -304.5q-4 -133 -55.5 -205.5t-118 -123t-115.5 -119t-51 -191.5h-250q2 142 47 227t104.5 141t105.5 112.5t50 138.5q0 83 -46.5 144.5t-141.5 64.5q-94 -4 -138 -71.5t-47 -145.5h-258zM385 267h250v-267
h-250v267z" />
    <glyph glyph-name="at" unicode="@" horiz-adv-x="2040" 
d="M1040 878q-162 -13 -235 -162.5t-72 -276.5q-1 -85 40 -143.5t132 -60.5q111 4 175 72.5t87 152.5q15 50 35.5 133t22.5 108q2 35 -38.5 102t-146.5 75zM1024 996q100 -2 158 -42t88 -97l53 107h147q-16 -64 -41.5 -160t-51 -197.5t-42 -179.5t-16.5 -106q1 -29 27.5 -49
t70.5 -21q91 3 173 73.5t130 168.5q28 57 43 122.5t15 147.5q-2 234 -178.5 394t-501.5 167q-408 -14 -625 -258t-219 -553q-3 -258 182 -463t588 -218q177 3 337 55t273 130l66 -95q-143 -101 -310.5 -160t-377.5 -61q-450 12 -681.5 248.5t-232.5 567.5q2 365 261 646
t755 296q385 -7 602 -203.5t221 -492.5q0 -232 -143 -435t-426 -216q-118 2 -160.5 48.5t-40.5 119.5q-54 -83 -127 -125.5t-168 -42.5q-175 4 -248 98t-71 233q-1 183 112.5 361.5t358.5 191.5z" />
    <glyph glyph-name="A" unicode="A" horiz-adv-x="1229" 
d="M430 566h348l-172 471zM-71 0l558 1443h242l553 -1443h-299l-111 300h-540l-115 -300h-288z" />
    <glyph glyph-name="B" unicode="B" horiz-adv-x="1049" 
d="M393 861h78q93 2 144.5 49t52.5 111q1 75 -46 122.5t-151 49.5h-78v-332zM393 632v-385h139q105 3 155 57t50 127q-1 88 -61.5 143.5t-171.5 57.5h-111zM123 1443h405q192 -6 296.5 -118t105.5 -259q2 -90 -30.5 -166.5t-117.5 -124.5q122 -33 176.5 -134t53.5 -210
q0 -180 -114 -303t-341 -128h-434v1443z" />
    <glyph glyph-name="C" unicode="C" horiz-adv-x="1536" 
d="M57 726q2 272 193.5 502t544.5 244q277 -5 443.5 -133.5t244.5 -321.5h-344q-52 72 -135.5 119t-208.5 49q-219 -12 -332.5 -162t-114.5 -297q5 -199 132 -332.5t319 -138.5q106 0 191.5 40.5t135.5 115.5h344q-80 -199 -251.5 -317.5t-423.5 -122.5q-372 17 -555 255
t-183 500z" />
    <glyph glyph-name="D" unicode="D" horiz-adv-x="1397" 
d="M123 1443h536q376 -13 528.5 -235t147.5 -490q5 -249 -146.5 -475.5t-520.5 -242.5h-545v1443zM401 243h226q252 8 340 154t82 329q2 196 -108.5 332.5t-354.5 142.5h-185v-958z" />
    <glyph glyph-name="E" unicode="E" 
d="M123 1443h778v-250h-500v-336h500v-246h-500v-364h500v-247h-778v1443z" />
    <glyph glyph-name="F" unicode="F" horiz-adv-x="983" 
d="M123 1443h778v-250h-500v-336h500v-246h-500v-611h-278v1443z" />
    <glyph glyph-name="G" unicode="G" horiz-adv-x="1606" 
d="M643 525v238h901v-86q-5 -272 -206.5 -483t-538.5 -223q-380 18 -561.5 259.5t-180.5 503.5q1 269 196 496.5t570 241.5q258 -5 423.5 -131.5t236.5 -315.5h-344q-57 77 -140 118.5t-204 41.5q-186 -7 -310 -144.5t-129 -322.5q1 -171 120 -312.5t339 -150.5
q144 4 251 84.5t146 185.5h-569z" />
    <glyph glyph-name="H" unicode="H" horiz-adv-x="1274" 
d="M123 0v1443h278v-586h467v586h279v-1443h-279v587h-467v-587h-278z" />
    <glyph glyph-name="I" unicode="I" horiz-adv-x="528" 
d="M123 0v1443h278v-1443h-278z" />
    <glyph glyph-name="J" unicode="J" horiz-adv-x="922" 
d="M0 386h279q-1 -51 22.5 -90t83.5 -41q81 3 107 61t24 132v995h279v-1057q2 -160 -94 -283.5t-312 -131.5q-221 7 -306.5 128t-82.5 287z" />
    <glyph glyph-name="K" unicode="K" horiz-adv-x="1135" 
d="M401 0h-278v1443h278v-1443zM410 718l438 725h311l-463 -717l459 -726h-311z" />
    <glyph glyph-name="L" unicode="L" horiz-adv-x="897" 
d="M401 247h451v-247h-729v1443h278v-1196z" />
    <glyph glyph-name="M" unicode="M" horiz-adv-x="1729" 
d="M123 1443h373l368 -1049l365 1049h373v-1443h-271v1046l-364 -1046h-209l-365 1062v-1062h-270v1443z" />
    <glyph glyph-name="N" unicode="N" horiz-adv-x="1389" 
d="M123 1443h266l598 -934v934h275v-1443h-263l-602 960v-960h-274v1443z" />
    <glyph glyph-name="O" unicode="O" horiz-adv-x="1606" 
d="M807 1181q-217 -8 -337 -146t-122 -309q2 -164 123.5 -310.5t335.5 -156.5q205 9 324 150.5t122 312.5q-1 171 -116.5 311t-329.5 148zM57 734q3 275 196 500t546 238q361 -14 552 -242.5t193 -503.5q-4 -305 -203.5 -524.5t-549.5 -230.5q-361 15 -547 248.5t-187 514.5
z" />
    <glyph glyph-name="P" unicode="P" horiz-adv-x="1049" 
d="M401 0h-278v1443h438q252 -9 355 -145t100 -289q-3 -187 -128 -318t-339 -137h-148v-554zM401 1193v-397h123q96 3 148 61t53 135q0 88 -54 143.5t-159 57.5h-111z" />
    <glyph glyph-name="Q" unicode="Q" horiz-adv-x="1606" 
d="M803 1189q-217 -9 -335 -150.5t-120 -312.5q0 -15 3 -35.5t9 -42.5q46 13 96 21t105 8q169 -2 317 -70t269 -172q55 56 80.5 129.5t25.5 157.5q-2 172 -119.5 315t-330.5 152zM57 734q3 275 198 500t548 238q361 -14 554 -242.5t195 -503.5q3 -124 -34.5 -249.5
t-145.5 -237.5q46 -21 86.5 -29t114.5 -8v-222q-135 1 -222 26t-163 69q-76 -47 -172.5 -74.5t-224.5 -29.5q-358 15 -545.5 248.5t-188.5 514.5zM434 456q49 -75 148.5 -134.5t224.5 -62.5q52 0 95 11t85 30q-110 72 -221 117.5t-221 46.5q-28 0 -55.5 -2.5t-55.5 -5.5z
" />
    <glyph glyph-name="R" unicode="R" horiz-adv-x="1163" 
d="M401 0h-278v1443h442q278 -4 408 -127.5t129 -323.5q1 -147 -83.5 -271.5t-264.5 -158.5l364 -562h-336l-381 677v-677zM401 1209v-471h78q161 0 251.5 63.5t92.5 186.5q1 95 -65 157t-209 64h-148z" />
    <glyph glyph-name="S" unicode="S" horiz-adv-x="979" 
d="M483 1226q-77 -3 -116 -51t-39 -109q0 -82 49 -120t126 -59.5t161 -51t155 -97.5q50 -47 74.5 -112.5t24.5 -165.5q2 -189 -108.5 -334.5t-354.5 -154.5q-212 9 -317 149.5t-105 322.5h258q-2 -83 36.5 -150t135.5 -71q103 3 144.5 61.5t39.5 135.5q-2 92 -48 133
t-116.5 59.5t-147.5 44t-142 86.5q-61 62 -88 132.5t-27 150.5q-2 162 95.5 300t322.5 147q209 -9 300 -141t89 -273h-254q0 67 -35.5 116.5t-112.5 51.5z" />
    <glyph glyph-name="T" unicode="T" horiz-adv-x="856" 
d="M12 1193v250h828v-250h-275v-1193h-278v1193h-275z" />
    <glyph glyph-name="U" unicode="U" horiz-adv-x="1176" 
d="M123 419v1024h278v-905q-4 -98 33 -185.5t156 -93.5q100 4 140.5 86.5t39.5 188.5v909h279v-995q1 -205 -113.5 -338t-353.5 -139q-247 9 -354 146t-105 302z" />
    <glyph glyph-name="V" unicode="V" horiz-adv-x="1159" 
d="M479 0l-517 1443h296l320 -967l319 967h299l-520 -1443h-197z" />
    <glyph glyph-name="W" unicode="W" horiz-adv-x="1720" 
d="M389 0l-415 1443h284l238 -946l266 946h192l263 -942l245 942h283l-418 -1443h-225l-246 898l-246 -898h-221z" />
    <glyph glyph-name="X" unicode="X" horiz-adv-x="1192" 
d="M446 726l-446 717h311l283 -504l283 504h315l-451 -717l463 -726h-315l-295 509l-295 -509h-312z" />
    <glyph glyph-name="Y" unicode="Y" horiz-adv-x="1004" 
d="M360 0v517l-410 926h304l250 -627l250 627h303l-418 -922v-521h-279z" />
    <glyph glyph-name="Z" unicode="Z" horiz-adv-x="967" 
d="M602 1177h-532v266h848v-234l-586 -946h602v-263h-905v247z" />
    <glyph glyph-name="bracketleft" unicode="[" horiz-adv-x="606" 
d="M365 -188h188v-222h-438v1853h438v-221h-188v-1410z" />
    <glyph glyph-name="backslash" unicode="\" horiz-adv-x="565" 
d="M0 1443h135l471 -1631h-135z" />
    <glyph glyph-name="bracketright" unicode="]" horiz-adv-x="606" 
d="M238 1222h-189v221h438v-1853h-438v222h189v1410z" />
    <glyph glyph-name="asciicircum" unicode="^" horiz-adv-x="2040" 
d="M418 894l491 553h217l492 -553h-205l-393 393l-402 -393h-200z" />
    <glyph glyph-name="underscore" unicode="_" 
d="M0 -483v168h1016v-168h-1016z" />
    <glyph glyph-name="grave" unicode="`" 
d="M233 1578h218l204 -340h-127z" />
    <glyph glyph-name="a" unicode="a" horiz-adv-x="1311" 
d="M930 554q-1 108 -82.5 208t-233.5 107q-145 -7 -227.5 -104.5t-83.5 -202.5q0 -118 78 -225.5t237 -114.5q149 6 230 106t82 226zM45 546q0 200 138.5 380.5t418.5 192.5q111 1 201 -38.5t155 -125.5v131h242v-1090h-242v136q-44 -80 -128 -120t-224 -41
q-274 12 -417 186.5t-144 388.5z" />
    <glyph glyph-name="b" unicode="b" horiz-adv-x="1311" 
d="M94 0v1443h250v-438q67 52 147.5 82.5t184.5 31.5q283 -11 428 -187.5t145 -389.5q-2 -214 -147.5 -387t-417.5 -184q-113 2 -195 34.5t-145 85.5v-91h-250zM672 869q-149 -5 -232 -104t-84 -227q1 -120 79.5 -217t223.5 -103q164 6 246 104.5t82 215.5t-80.5 220.5
t-234.5 110.5z" />
    <glyph glyph-name="c" unicode="c" horiz-adv-x="1237" 
d="M618 873q-148 -6 -229 -105t-82 -218q0 -120 80 -222.5t240 -109.5q106 0 170 45t100 131h266q-32 -169 -171 -292.5t-374 -130.5q-277 13 -424.5 191.5t-148.5 383.5q2 208 152.5 385t429.5 188q221 -5 364 -124.5t176 -293.5h-270q-36 76 -102.5 123.5t-176.5 48.5z
" />
    <glyph glyph-name="d" unicode="d" horiz-adv-x="1315" 
d="M1217 0h-250v91q-64 -53 -146 -85.5t-194 -34.5q-272 11 -418 184t-148 387q1 213 146 389.5t428 187.5q104 -1 184.5 -31.5t147.5 -82.5v438h250v-1443zM639 869q-154 -7 -234.5 -110.5t-80.5 -220.5t82 -215.5t245 -104.5q146 6 224 103t79 217q-1 128 -83.5 227
t-231.5 104z" />
    <glyph glyph-name="e" unicode="e" horiz-adv-x="1237" 
d="M918 661q-27 106 -108.5 167t-191.5 62q-112 -2 -194 -64t-109 -165h603zM307 464q4 -99 81.5 -176.5t213.5 -81.5q92 0 159 32.5t116 102.5h274q-55 -152 -188 -258t-353 -112q-277 13 -420.5 192.5t-144.5 382.5q3 208 152.5 385t416.5 188q259 -11 414.5 -176.5
t159.5 -351.5v-127h-881z" />
    <glyph glyph-name="f" unicode="f" horiz-adv-x="606" 
d="M164 865h-131v221h123q5 217 105 297t231 76h98v-225q-102 2 -140 -29.5t-36 -118.5h176v-221h-180v-865h-246v865z" />
    <glyph glyph-name="g" unicode="g" horiz-adv-x="1311" 
d="M950 558q0 110 -83 219t-249 117q-157 -7 -241.5 -110t-85.5 -218q0 -118 83 -227t249 -117q154 6 240 108t87 228zM45 550q-1 200 135 378.5t418 190.5q100 1 198 -38.5t179 -125.5v131h225v-966q0 -215 -143 -378t-434 -172q-212 5 -339 109.5t-173 254.5h241
q26 -57 101 -104t178 -51q177 7 261 119t83 255q-69 -70 -162 -112.5t-227 -44.5q-273 13 -407 191t-134 363z" />
    <glyph glyph-name="h" unicode="h" horiz-adv-x="1188" 
d="M115 0v1443h241v-483q48 74 127.5 112.5t175.5 38.5q214 -6 316.5 -134.5t101.5 -303.5v-673h-250v591q2 116 -50.5 195.5t-182.5 82.5q-125 -5 -182 -98t-56 -221v-550h-241z" />
    <glyph glyph-name="i" unicode="i" horiz-adv-x="479" 
d="M115 1201v242h245v-242h-245zM115 1086h245v-1086h-245v1086z" />
    <glyph glyph-name="j" unicode="j" horiz-adv-x="500" 
d="M119 1201v242h241v-242h-241zM119 1086h241v-1160q2 -110 -58.5 -193.5t-203.5 -88.5h-111v241q78 1 106 30.5t26 93.5v1077z" />
    <glyph glyph-name="k" unicode="k" horiz-adv-x="1012" 
d="M115 0v1443h241v-864l361 507h282l-381 -516l455 -570h-315l-402 554v-554h-241z" />
    <glyph glyph-name="l" unicode="l" horiz-adv-x="479" 
d="M115 0v1443h245v-1443h-245z" />
    <glyph glyph-name="m" unicode="m" horiz-adv-x="1876" 
d="M115 1078h241v-118q53 66 130 108t173 43q105 -1 206.5 -54t162.5 -143q49 80 139.5 137t196.5 60q192 -7 296 -134.5t105 -291.5v-685h-249v579q3 117 -45.5 201.5t-180.5 88.5q-122 -6 -176 -100.5t-53 -202.5v-566h-250v579q2 122 -46.5 204.5t-178.5 85.5
q-125 -6 -178 -103t-52 -216v-550h-241v1078z" />
    <glyph glyph-name="n" unicode="n" horiz-adv-x="1188" 
d="M115 1078h250v-123q45 66 127.5 110t179.5 46q197 -7 300.5 -135t104.5 -295v-681h-250v579q2 117 -46.5 201.5t-178.5 88.5q-130 -6 -184.5 -103t-52.5 -216v-550h-250v1078z" />
    <glyph glyph-name="o" unicode="o" horiz-adv-x="1241" 
d="M618 873q-162 -6 -237 -106t-74 -225q0 -125 76 -222t235 -102q170 6 242 108.5t70 231.5q-1 125 -81 217.5t-231 97.5zM627 1119q285 -13 425 -196t140 -377q1 -205 -143.5 -383.5t-442.5 -191.5q-271 14 -415.5 194t-145.5 377q1 213 151 389.5t431 187.5z" />
    <glyph glyph-name="p" unicode="p" horiz-adv-x="1311" 
d="M94 1086h250v-94q63 54 145 90t195 37q272 -11 417.5 -187.5t147.5 -389.5q-1 -214 -147.5 -387t-429.5 -184q-104 1 -184 29.5t-144 86.5v-443h-250v1442zM672 218q154 7 234.5 110.5t80.5 221.5q0 116 -82 214.5t-246 104.5q-145 -6 -223.5 -103t-79.5 -216
q1 -128 84 -227.5t232 -104.5z" />
    <glyph glyph-name="q" unicode="q" horiz-adv-x="1315" 
d="M1217 1086v-1442h-250v443q-61 -56 -141.5 -85.5t-190.5 -30.5q-283 11 -428 184t-146 387q2 213 148 389.5t418 187.5q112 -1 194 -35t146 -88v90h250zM639 218q149 5 231.5 102.5t83.5 225.5q-1 119 -79 216t-224 103q-163 -6 -245 -104.5t-82 -214.5
q0 -118 80.5 -219.5t234.5 -108.5z" />
    <glyph glyph-name="r" unicode="r" horiz-adv-x="610" 
d="M618 869q-129 -8 -195.5 -73t-66.5 -168v-628h-250v1070h234v-119q38 54 113 96t165 56v-234z" />
    <glyph glyph-name="s" unicode="s" horiz-adv-x="831" 
d="M49 353h230q-1 -62 28.5 -117t102.5 -59q65 2 98 39t33 88q-4 78 -69.5 114t-153 67.5t-153 98t-67.5 203.5q-1 110 79 217t257 115q176 -7 247.5 -107.5t68.5 -211.5h-226q1 47 -21.5 82t-80.5 37q-49 -2 -73.5 -34.5t-24.5 -68.5q2 -69 67.5 -103t152.5 -68
t154.5 -105.5t71.5 -218.5q1 -127 -86.5 -234.5t-273.5 -115.5q-181 7 -271 119.5t-90 262.5z" />
    <glyph glyph-name="t" unicode="t" horiz-adv-x="623" 
d="M193 0v865h-168v221h168v357h249v-357h168v-221h-168v-865h-249z" />
    <glyph glyph-name="u" unicode="u" horiz-adv-x="1188" 
d="M1073 0h-246v120q-43 -68 -121 -107.5t-186 -41.5q-211 8 -313 134.5t-101 292.5v688h246v-585q-2 -118 49.5 -202.5t184.5 -88.5q136 6 189.5 103t51.5 216v557h246v-1086z" />
    <glyph glyph-name="v" unicode="v" horiz-adv-x="995" 
d="M-22 1086h268l254 -733l266 733h262l-438 -1086h-197z" />
    <glyph glyph-name="w" unicode="w" horiz-adv-x="1434" 
d="M-9 1086h263l180 -634l197 634h184l184 -630l181 630h270l-381 -1086h-164l-192 661l-189 -661h-164z" />
    <glyph glyph-name="x" unicode="x" horiz-adv-x="930" 
d="M-1 1086h280l192 -311l193 311h294l-348 -516l353 -570h-287l-221 345l-230 -345h-271l370 566z" />
    <glyph glyph-name="y" unicode="y" horiz-adv-x="1044" 
d="M221 -356l152 382l-395 1060h264l266 -765l299 765h262l-590 -1442h-258z" />
    <glyph glyph-name="z" unicode="z" horiz-adv-x="860" 
d="M74 1086h717v-274l-455 -573h487v-239h-790v230l491 623h-450v233z" />
    <glyph glyph-name="braceleft" unicode="{" 
d="M233 611q110 3 158 66.5t47 155.5v376q0 121 75 187t228 67h127v-172h-77q-72 -2 -111.5 -42.5t-40.5 -100.5v-373q2 -91 -46 -158.5t-163 -91.5q115 -23 163 -91t46 -159v-369q0 -59 38 -100t109 -44h82v-176h-131q-153 2 -226.5 70.5t-72.5 187.5v370q1 92 -49 157
t-160 68h-65v172h69z" />
    <glyph glyph-name="bar" unicode="|" 
d="M594 -483h-172v2032h172v-2032z" />
    <glyph glyph-name="braceright" unicode="}" 
d="M786 611h70v-172h-65q-110 -3 -160 -68t-49 -157v-370q0 -119 -73 -187.5t-226 -70.5h-131v176h81q72 3 110 44t38 100v369q-2 91 46 159t163 91q-115 24 -163 91.5t-46 158.5v373q-1 60 -40.5 100.5t-111.5 42.5h-77v172h127q153 -1 228 -67t75 -187v-376
q-1 -92 47 -155.5t157 -66.5z" />
    <glyph glyph-name="asciitilde" unicode="~" horiz-adv-x="2040" 
d="M410 1037q-1 122 85 231.5t267 116.5q110 -2 176 -40.5t111 -90t93 -91.5t124 -44q100 4 142.5 66t41.5 131v69h172v-81q1 -124 -84 -233t-268 -116q-115 5 -181.5 44.5t-111.5 91t-92 90.5t-123 41q-89 -4 -134.5 -65.5t-45.5 -135.5v-66h-172v82z" />
    <glyph glyph-name="exclamdown" unicode="&#xa1;" horiz-adv-x="623" 
d="M184 1046h250v-1046h-250v1046zM184 1173v270h250v-270h-250z" />
    <glyph glyph-name="cent" unicode="&#xa2;" horiz-adv-x="1184" 
d="M602 374q99 3 161.5 60t84.5 128h258q-23 -146 -125 -258t-272 -164v-222h-217v226q-196 54 -308 211.5t-114 358.5q-1 179 103 341.5t319 227.5v213h217v-209q180 -48 278.5 -161t122.5 -257h-262q-32 84 -96 134t-146 51q-146 -8 -214.5 -117t-67.5 -219
q0 -124 68.5 -230.5t209.5 -113.5z" />
    <glyph glyph-name="sterling" unicode="&#xa3;" horiz-adv-x="1184" 
d="M61 640v229h103q-9 34 -17 69t-8 75q0 163 120.5 306.5t363.5 152.5q194 -5 318.5 -111.5t139.5 -261.5h-290q-13 57 -60 91.5t-125 35.5q-87 -4 -137 -61t-51 -119q1 -41 15.5 -85.5t33.5 -91.5h401v-229h-303q34 -62 55.5 -119.5t22.5 -138.5q0 -34 -11 -72t-30 -75
q15 -4 25.5 -6.5t27.5 -2.5q105 4 161 74t56 160l-16 94h254q6 -20 9 -45.5t3 -44.5q3 -197 -104 -335t-359 -145l-569 16v235h225q31 18 46.5 66.5t15.5 96.5q0 64 -29 122.5t-82 119.5h-205z" />
    <glyph glyph-name="currency" unicode="&#xa4;" horiz-adv-x="1237" 
d="M618 1168q-134 -5 -213 -93.5t-81 -201.5q2 -112 81 -198.5t213 -91.5q134 5 211.5 93t79.5 197q-2 110 -79.5 200t-211.5 95zM618 1295q74 0 136 -20.5t114 -61.5l201 205l90 -90l-201 -205q43 -61 61 -123.5t17 -130.5q0 -68 -20 -130.5t-58 -114.5l201 -201l-90 -90
l-201 201q-50 -35 -112.5 -56t-153.5 -22q-70 1 -130 22t-112 56l-200 -201l-86 90l200 209q-40 51 -58.5 112t-18.5 138q0 70 20 127t57 114l-200 205l90 90l201 -205q58 43 120.5 62.5t132.5 19.5z" />
    <glyph glyph-name="yen" unicode="&#xa5;" horiz-adv-x="1184" 
d="M451 0v529h-390v172h304l-78 172h-226v173h148l-172 389h287l266 -639l266 639h287l-180 -389h147v-173h-229l-78 -172h307v-172h-389v-529h-270z" />
    <glyph glyph-name="brokenbar" unicode="&#xa6;" 
d="M594 669h-172v749h172v-749zM594 -348h-172v750h172v-750z" />
    <glyph glyph-name="section" unicode="&#xa7;" 
d="M647 1132q-2 59 -38.5 98.5t-121.5 40.5q-56 -1 -88.5 -30.5t-33.5 -76.5q-2 -43 60.5 -86t217.5 -114q162 -72 241 -143t79 -201q0 -81 -44 -147t-133 -107q61 -47 88.5 -112t26.5 -142q0 -129 -97 -231.5t-296 -109.5q-199 4 -296 103.5t-97 253.5h241
q6 -66 43.5 -108.5t116.5 -44.5q63 1 102.5 30.5t40.5 85.5q4 63 -62.5 106.5t-244.5 127.5q-166 80 -233.5 155.5t-65.5 180.5q0 78 44.5 149t127.5 113q-49 39 -73.5 90.5t-24.5 122.5q1 147 97.5 240t275.5 96q190 -3 283.5 -96.5t93.5 -243.5h-230zM270 718
q1 -34 21.5 -62.5t52.5 -44.5l311 -159q43 23 62.5 49.5t19.5 68.5q0 28 -19.5 55t-62.5 52l-303 151q-37 -16 -59 -47t-23 -63z" />
    <glyph glyph-name="dieresis" unicode="&#xa8;" 
d="M233 1283v225h201v-225h-201zM582 1283v225h200v-225h-200z" />
    <glyph glyph-name="copyright" unicode="&#xa9;" horiz-adv-x="1700" 
d="M836 1459q345 -10 545 -226.5t204 -518.5q-5 -285 -205.5 -498t-539.5 -224q-349 17 -536 248t-189 478q4 275 197 501t524 240zM848 1353q-289 -11 -456.5 -203t-170.5 -428q2 -225 165 -419.5t466 -207.5q297 12 461 202t166 417q-2 244 -166.5 436t-464.5 203z
M459 714q-2 168 90.5 307t302.5 147q153 -4 247 -83t97 -187h-160q-10 69 -61.5 110t-126.5 42q-110 -4 -162 -98.5t-51 -225.5q-3 -111 42 -211.5t171 -107.5q83 1 133.5 44t62.5 123h156q-2 -125 -96.5 -208t-259.5 -86q-199 7 -292.5 137t-92.5 297z" />
    <glyph glyph-name="ordfeminine" unicode="&#xaa;" horiz-adv-x="983" 
d="M459 1283q-109 -5 -171 -74.5t-63 -142.5q0 -79 59 -153.5t179 -79.5q108 4 170 74t63 155q-1 76 -62 146t-175 75zM451 1459q89 1 155.5 -27.5t110.5 -95.5v103h180v-766h-180v102q-30 -59 -94 -89t-168 -30q-204 7 -312.5 128t-109.5 270q-1 143 101.5 270t316.5 135z
" />
    <glyph glyph-name="guillemotleft" unicode="&#xab;" horiz-adv-x="1110" 
d="M709 542l245 -320h-196l-246 320l250 315h192zM127 542l246 315h192l-241 -315l241 -320h-196z" />
    <glyph glyph-name="logicalnot" unicode="&#xac;" horiz-adv-x="1700" 
d="M1442 353h-164v336h-1028v160h1192v-496z" />
    <glyph glyph-name="registered" unicode="&#xae;" horiz-adv-x="1700" 
d="M553 325v823h369q147 -3 218.5 -69t71.5 -160q-1 -90 -50.5 -149.5t-133.5 -76.5l180 -368h-188l-164 344h-131v-344h-172zM725 775h164q74 0 110.5 35t36.5 100q0 54 -39.5 90t-119.5 37h-152v-262zM836 1459q345 -10 545 -226.5t204 -518.5q-5 -285 -205.5 -498
t-539.5 -224q-349 17 -536 248t-189 478q4 275 197 501t524 240zM848 1353q-289 -11 -456.5 -203t-170.5 -428q2 -225 165 -419.5t466 -207.5q297 12 461 202t166 417q-2 244 -166.5 436t-464.5 203z" />
    <glyph glyph-name="overscore" unicode="&#xaf;" 
d="M0 1549h1016v-168h-1016v168z" />
    <glyph glyph-name="degree" unicode="&#xb0;" horiz-adv-x="672" 
d="M336 1443q134 -4 213.5 -90.5t81.5 -204.5q-3 -118 -84.5 -202.5t-210.5 -88.5q-126 4 -207 86.5t-84 200.5q2 118 79.5 206t211.5 93zM524 1152q-2 73 -54.5 127t-133.5 57q-85 -3 -136.5 -59t-52.5 -129q2 -73 56 -127t133 -57q81 3 133.5 59t54.5 129z" />
    <glyph glyph-name="plusminus" unicode="&#xb1;" horiz-adv-x="1700" 
d="M254 697v164h512v332h164v-332h512v-164h-512v-331h-164v331h-512zM254 173h1188v-164h-1188v164z" />
    <glyph glyph-name="twosuperior" unicode="&#xb2;" horiz-adv-x="782" 
d="M74 742q137 115 224 190t134 121t65.5 79.5t18.5 64.5q1 42 -29.5 75.5t-97.5 35.5q-53 0 -85.5 -35t-33.5 -109h-184q-2 102 68.5 195t234.5 100q149 -4 229.5 -82t81.5 -180q0 -51 -17 -92t-61 -86t-125 -113.5t-206 -175.5h405v-151h-622v163z" />
    <glyph glyph-name="threesuperior" unicode="&#xb3;" horiz-adv-x="782" 
d="M307 1230h-164q0 92 63.5 159t186.5 70q112 -4 176.5 -69.5t65.5 -143.5q0 -52 -25.5 -92.5t-77.5 -71.5q86 -32 127 -92t41 -137q-1 -109 -81.5 -197.5t-229.5 -93.5q-165 4 -240.5 87t-74.5 204h176q-1 -46 29 -91t102 -48q79 3 113.5 49.5t33.5 101.5q-1 60 -41 97
t-106 38h-57v140h45q54 2 76.5 31t21.5 67q0 29 -21 51t-61 23q-42 -1 -60 -25.5t-18 -56.5z" />
    <glyph glyph-name="acute" unicode="&#xb4;" 
d="M786 1578l-294 -340h-127l204 340h217z" />
    <glyph glyph-name="mu" unicode="&#xb5;" horiz-adv-x="1204" 
d="M131 -430h-218l292 1500h225l-123 -618q-3 -28 -7.5 -58t-4.5 -53q-1 -88 42 -143.5t146 -57.5q117 5 188.5 92t90.5 199l127 639h221l-156 -799q-3 -21 -5.5 -37t-2.5 -28q0 -28 11 -46.5t38 -19.5h54l-33 -152q-35 -5 -75.5 -8.5t-72.5 -4.5q-71 2 -107 26.5t-36 65.5
v45q-38 -65 -106.5 -102t-155.5 -39q-89 2 -145.5 33t-84.5 75z" />
    <glyph glyph-name="paragraph" unicode="&#xb6;" 
d="M422 775q-182 7 -275.5 108.5t-93.5 243.5q2 134 99 232.5t262 103.5h549v-94h-115v-1369h-127v1369h-172v-1369h-127v775z" />
    <glyph glyph-name="periodcentered" unicode="&#xb7;" horiz-adv-x="1028" 
d="M512 550q-51 2 -88 39t-39 88q2 51 39 88t88 39q51 -2 88 -39t39 -88q-2 -51 -39 -88t-88 -39z" />
    <glyph glyph-name="cedilla" unicode="&#xb8;" 
d="M426 -4h86v-94q145 0 201 -50t53 -135q1 -88 -60 -139t-190 -53q-67 2 -134.5 14t-135.5 27v115q62 -15 127 -27t127 -14q58 1 82.5 19.5t23.5 57.5t-29.5 59t-72.5 19h-78v201z" />
    <glyph glyph-name="onesuperior" unicode="&#xb9;" horiz-adv-x="778" 
d="M332 1320h-168v123h344v-864h-176v741z" />
    <glyph glyph-name="ordmasculine" unicode="&#xba;" horiz-adv-x="930" 
d="M463 1291q-120 -4 -177 -74t-57 -151q-1 -90 53 -162t181 -76q122 4 178 75.5t55 158.5q1 81 -53.5 152.5t-179.5 76.5zM475 1459q195 -7 305.5 -128t112.5 -269q-1 -160 -114.5 -280t-323.5 -126q-202 8 -311.5 133.5t-110.5 268.5q1 151 113.5 272.5t328.5 128.5z" />
    <glyph glyph-name="guillemotright" unicode="&#xbb;" horiz-adv-x="1110" 
d="M979 542l-242 -320h-196l241 320l-241 315h192zM348 222h-196l245 320l-245 315h196l246 -315z" />
    <glyph glyph-name="onequarter" unicode="&#xbc;" horiz-adv-x="1831" 
d="M160 1328v115h327v-807h-168v692h-159zM1532 804h160v-553h77v-131h-77v-120h-152v120h-397v135zM1540 251v348l-246 -348h246zM1278 1472h143l-872 -1497h-143z" />
    <glyph glyph-name="onehalf" unicode="&#xbd;" horiz-adv-x="1831" 
d="M1155 149q282 226 357 303t65 122q0 40 -29 72.5t-90 34.5q-61 -3 -88 -38t-27 -69v-28h-176q-2 98 65.5 183t225.5 91q139 -4 216.5 -77t78.5 -169q6 -77 -71.5 -162t-317.5 -276h385v-136h-594v149zM160 1328v115h327v-807h-168v692h-159zM1278 1472h143l-872 -1497
h-143z" />
    <glyph glyph-name="threequarters" unicode="&#xbe;" horiz-adv-x="1831" 
d="M291 1246h-156q1 86 62 148t176 65q108 -3 168 -62t61 -138q0 -49 -22.5 -85t-71.5 -63q88 -29 124.5 -89.5t35.5 -135.5q-1 -102 -79 -180t-220 -82q-158 3 -229 80t-70 190h168q0 -46 31.5 -87t95.5 -44q70 2 104.5 43t34.5 92q-1 60 -40 97t-104 38h-49v131h41
q49 1 70 24.5t20 61.5q0 29 -18 51t-55 23q-40 -1 -59 -25t-19 -53zM1532 804h160v-553h77v-131h-77v-120h-152v120h-397v135zM1294 251h246v348zM1278 1472h143l-872 -1497h-143z" />
    <glyph glyph-name="questiondown" unicode="&#xbf;" horiz-adv-x="1040" 
d="M754 464h262q0 -183 -115 -320t-340 -144q-220 6 -339 134.5t-120 300.5q2 135 48.5 205t110 118t115.5 116.5t66 199.5h250q-10 -147 -57 -233t-105.5 -141.5t-100.5 -108.5t-44 -135q0 -83 44.5 -142.5t139.5 -62.5q95 3 140 65t45 148zM692 1201h-250v271h250v-271z
" />
    <glyph glyph-name="Agrave" unicode="&#xc0;" horiz-adv-x="1229" 
d="M430 566h348l-172 471zM487 1443h242l553 -1443h-299l-111 300h-540l-115 -300h-288zM336 1926h217l205 -340h-127z" />
    <glyph glyph-name="Aacute" unicode="&#xc1;" horiz-adv-x="1229" 
d="M430 566h348l-172 471zM487 1443h242l553 -1443h-299l-111 300h-540l-115 -300h-288zM672 1926h217l-295 -340h-127z" />
    <glyph glyph-name="Acircumflex" unicode="&#xc2;" horiz-adv-x="1229" 
d="M778 566l-172 471l-176 -471h348zM487 1443h242l553 -1443h-299l-111 300h-540l-115 -300h-288zM610 1791l-168 -209h-127l189 344h213l188 -344h-127z" />
    <glyph glyph-name="Atilde" unicode="&#xc3;" horiz-adv-x="1229" 
d="M909 1869q-15 -81 -53 -147t-139 -70q-67 3 -118 20.5t-99 20.5q-39 0 -57.5 -17.5t-32.5 -48.5h-95q7 78 53 143.5t132 69.5q65 -3 123.5 -22.5t101.5 -22.5q37 1 60.5 21.5t29.5 52.5h94zM430 566h348l-172 471zM487 1443h242l553 -1443h-299l-111 300h-540l-115 -300
h-288z" />
    <glyph glyph-name="Adieresis" unicode="&#xc4;" horiz-adv-x="1229" 
d="M336 1857h201v-226h-201v226zM684 1857h201v-226h-201v226zM778 566l-172 471l-176 -471h348zM487 1443h242l553 -1443h-299l-111 300h-540l-115 -300h-288z" />
    <glyph glyph-name="Aring" unicode="&#xc5;" horiz-adv-x="1229" 
d="M426 570h352l-176 480zM487 1443h242l553 -1443h-299l-111 300h-540l-115 -300h-288zM610 1943q100 -3 162 -68t64 -154q0 -86 -57.5 -151.5t-168.5 -69.5q-100 3 -161.5 67.5t-63.5 153.5q1 87 61.5 153t163.5 69zM610 1828q-49 -2 -77 -36.5t-29 -70.5q0 -41 29 -72.5
t81 -33.5q50 2 78.5 34.5t28.5 71.5q-1 45 -32 75.5t-79 31.5z" />
    <glyph glyph-name="AE" unicode="&#xc6;" horiz-adv-x="1700" 
d="M-120 0l775 1443h926v-250h-500v-336h500v-246h-500v-364h500v-247h-778v386h-426l-184 -386h-313zM508 648h295v525h-37z" />
    <glyph glyph-name="Ccedilla" unicode="&#xc7;" horiz-adv-x="1536" 
d="M57 726q2 272 193.5 502t544.5 244q277 -5 443.5 -133.5t244.5 -321.5h-344q-52 72 -135.5 119t-208.5 49q-219 -12 -332.5 -162t-114.5 -297q5 -199 132 -332.5t319 -138.5q106 0 191.5 40.5t135.5 115.5h344q-83 -203 -252.5 -320t-418.5 -120v-69h32q116 -1 169.5 -51
t52.5 -130q1 -95 -61 -145t-193 -51q-61 2 -136.5 15t-130.5 26v115q72 -18 136.5 -29t113.5 -12q63 1 87.5 19.5t23.5 57.5q-1 47 -32 63.5t-79 14.5h-69v180q-326 50 -491 272t-165 479z" />
    <glyph glyph-name="Egrave" unicode="&#xc8;" 
d="M901 1443v-250h-500v-336h500v-246h-500v-364h500v-247h-778v1443h778zM451 1926l204 -340h-127l-295 340h218z" />
    <glyph glyph-name="Eacute" unicode="&#xc9;" 
d="M901 1443v-250h-500v-336h500v-246h-500v-364h500v-247h-778v1443h778zM786 1926l-294 -340h-127l204 340h217z" />
    <glyph glyph-name="Ecircumflex" unicode="&#xca;" 
d="M901 1443v-250h-500v-336h500v-246h-500v-364h500v-247h-778v1443h778zM676 1582l-168 209l-168 -209h-127l188 344h213l189 -344h-127z" />
    <glyph glyph-name="Edieresis" unicode="&#xcb;" 
d="M901 1443v-250h-500v-336h500v-246h-500v-364h500v-247h-778v1443h778zM233 1857h201v-226h-201v226zM582 1631v226h200v-226h-200z" />
    <glyph glyph-name="Igrave" unicode="&#xcc;" horiz-adv-x="528" 
d="M401 0h-278v1443h278v-1443zM-9 1926h214l205 -340h-127z" />
    <glyph glyph-name="Iacute" unicode="&#xcd;" horiz-adv-x="528" 
d="M401 0h-278v1443h278v-1443zM541 1926l-295 -340h-127l205 340h217z" />
    <glyph glyph-name="Icircumflex" unicode="&#xce;" horiz-adv-x="528" 
d="M401 0h-278v1443h278v-1443zM430 1582l-168 209l-168 -209h-124l186 344h213l188 -344h-127z" />
    <glyph glyph-name="Idieresis" unicode="&#xcf;" horiz-adv-x="528" 
d="M123 0v1443h278v-1443h-278zM-9 1631v226h197v-226h-197zM336 1857h201v-226h-201v226z" />
    <glyph glyph-name="Eth" unicode="&#xd0;" horiz-adv-x="1425" 
d="M152 1443h536q376 -13 528.5 -235t147.5 -490q5 -249 -146.5 -475.5t-521.5 -242.5h-544v607h-152v234h152v602zM655 243q252 8 340 154t82 329q2 196 -108.5 332.5t-354.5 142.5h-184v-360h299v-234h-299v-364h225z" />
    <glyph glyph-name="Ntilde" unicode="&#xd1;" horiz-adv-x="1389" 
d="M389 1443l598 -934v934h275v-1443h-263l-602 960v-960h-274v1443h266zM991 1869q-15 -81 -53 -147t-139 -70q-67 3 -118 20.5t-99 20.5q-39 0 -57.5 -17.5t-32.5 -48.5h-95q7 78 53 143.5t132 69.5q65 -3 123.5 -22.5t101.5 -22.5q37 1 60.5 21.5t29.5 52.5h94z" />
    <glyph glyph-name="Ograve" unicode="&#xd2;" horiz-adv-x="1606" 
d="M807 1181q-217 -8 -337 -146t-122 -309q2 -164 123.5 -310.5t335.5 -156.5q205 9 324 150.5t122 312.5q-1 171 -116.5 311t-329.5 148zM799 1472q361 -14 552 -242.5t193 -503.5q-4 -305 -203.5 -524.5t-549.5 -230.5q-361 15 -547 248.5t-187 514.5q3 275 196 500
t546 238zM741 1926l205 -340h-127l-295 340h217z" />
    <glyph glyph-name="Oacute" unicode="&#xd3;" horiz-adv-x="1606" 
d="M1253 722q-1 171 -116.5 311t-329.5 148q-217 -8 -337 -146t-122 -309q2 -164 123.5 -310.5t335.5 -156.5q205 9 324 150.5t122 312.5zM799 1472q361 -14 552 -242.5t193 -503.5q-4 -305 -203.5 -524.5t-549.5 -230.5q-361 15 -547 248.5t-187 514.5q3 275 196 500
t546 238zM860 1926h217l-295 -340h-127z" />
    <glyph glyph-name="Ocircumflex" unicode="&#xd4;" horiz-adv-x="1606" 
d="M811 1181q-217 -8 -339 -146t-124 -309q2 -164 121.5 -310.5t333.5 -156.5q205 9 326 150.5t124 312.5q-1 171 -115 311t-327 148zM803 1472q361 -14 550.5 -242.5t190.5 -503.5q-3 -305 -201 -524.5t-548 -230.5q-361 15 -549 246.5t-189 512.5q3 275 198 501.5
t548 240.5zM799 1791l-168 -209h-127l188 344h213l189 -344h-127z" />
    <glyph glyph-name="Otilde" unicode="&#xd5;" horiz-adv-x="1606" 
d="M807 1181q-217 -8 -337 -146t-122 -309q2 -164 123.5 -310.5t335.5 -156.5q205 9 324 150.5t122 312.5q-1 171 -116.5 311t-329.5 148zM799 1472q361 -14 552 -242.5t193 -503.5q-4 -305 -203.5 -524.5t-549.5 -230.5q-361 15 -547 248.5t-187 514.5q3 275 196 500
t546 238zM905 1652q-66 3 -117.5 20.5t-99.5 20.5q-39 0 -57.5 -17.5t-32.5 -48.5h-94q6 78 52 143.5t132 69.5q65 -3 123.5 -22.5t101.5 -22.5q38 1 61 21.5t30 52.5h94q-15 -81 -53.5 -147t-139.5 -70z" />
    <glyph glyph-name="Odieresis" unicode="&#xd6;" horiz-adv-x="1606" 
d="M807 1181q-217 -8 -337 -146t-122 -309q2 -164 123.5 -310.5t335.5 -156.5q205 9 324 150.5t122 312.5q-1 171 -116.5 311t-329.5 148zM799 1472q361 -14 552 -242.5t193 -503.5q-4 -305 -203.5 -524.5t-549.5 -230.5q-361 15 -547 248.5t-187 514.5q3 275 196 500
t546 238zM524 1857h201v-226h-201v226zM872 1631v226h201v-226h-201z" />
    <glyph glyph-name="multiply" unicode="&#xd7;" horiz-adv-x="1700" 
d="M745 603l-458 459l114 115l459 -459l459 459l115 -115l-459 -459l459 -459l-115 -114l-459 458l-463 -458l-110 114z" />
    <glyph glyph-name="Oslash" unicode="&#xd8;" horiz-adv-x="1606" 
d="M225 243q-80 96 -123.5 220.5t-44.5 266.5q4 302 206 517t548 225q110 0 205.5 -29t175.5 -82l209 233l164 -143l-205 -238q87 -89 135 -211.5t49 -279.5q-1 -284 -195.5 -510.5t-570.5 -240.5q-120 2 -216.5 35t-176.5 89l-225 -255l-160 144zM430 476l574 660
q-37 19 -87 31.5t-114 13.5q-217 -8 -335 -147t-120 -316q0 -68 21 -128.5t61 -113.5zM586 325q35 -37 91.5 -52t113.5 -14q203 5 330.5 136t131.5 327q1 87 -18 147.5t-68 122.5z" />
    <glyph glyph-name="Ugrave" unicode="&#xd9;" horiz-adv-x="1176" 
d="M123 1443h278v-905q-4 -98 33 -185.5t156 -93.5q100 4 140.5 86.5t39.5 188.5v909h279v-995q1 -205 -113.5 -338t-353.5 -139q-247 9 -354 146t-105 302v1024zM528 1926l205 -340h-127l-295 340h217z" />
    <glyph glyph-name="Uacute" unicode="&#xda;" horiz-adv-x="1176" 
d="M123 1443h278v-905q-4 -98 33 -185.5t156 -93.5q100 4 140.5 86.5t39.5 188.5v909h279v-995q1 -205 -113.5 -338t-353.5 -139q-247 9 -354 146t-105 302v1024zM647 1926h217l-295 -340h-127z" />
    <glyph glyph-name="Ucircumflex" unicode="&#xdb;" horiz-adv-x="1176" 
d="M123 419v1024h278v-905q-4 -98 33 -185.5t156 -93.5q100 4 140.5 86.5t39.5 188.5v909h279v-995q1 -205 -113.5 -338t-353.5 -139q-247 9 -354 146t-105 302zM754 1582l-168 209l-168 -209h-127l188 344h213l189 -344h-127z" />
    <glyph glyph-name="Udieresis" unicode="&#xdc;" horiz-adv-x="1176" 
d="M311 1857h201v-226h-201v226zM659 1857h201v-226h-201v226zM123 1443h278v-905q-4 -98 33 -185.5t156 -93.5q100 4 140.5 86.5t39.5 188.5v909h279v-995q1 -205 -113.5 -338t-353.5 -139q-247 9 -354 146t-105 302v1024z" />
    <glyph glyph-name="Yacute" unicode="&#xdd;" horiz-adv-x="1004" 
d="M360 0v517l-414 926h308l250 -627l250 627h303l-418 -922v-521h-279zM561 1926h217l-295 -340h-127z" />
    <glyph glyph-name="Thorn" unicode="&#xde;" horiz-adv-x="1049" 
d="M123 0v1443h278v-254h168q238 -8 343.5 -142t103.5 -292q-3 -195 -132 -322.5t-347 -132.5h-136v-300h-278zM401 542h119q96 2 150 61t55 148q-1 79 -59.5 132.5t-169.5 55.5h-95v-397z" />
    <glyph glyph-name="germandbls" unicode="&#xdf;" horiz-adv-x="1229" 
d="M356 239v-239h-241v1029q-1 188 103.5 307t330.5 123q210 -6 321.5 -121.5t112.5 -271.5q0 -86 -32.5 -151t-94.5 -111q163 -37 243.5 -145t80.5 -244q-1 -179 -111.5 -308t-314.5 -136q-159 3 -257 74.5t-141 193.5zM356 1046v-668h140q12 -71 65 -132t148 -65
q108 4 166 74.5t59 155.5q-1 88 -69 151t-189 66h-135v217q104 3 154 65t50 148q-1 85 -54.5 142t-149.5 59q-95 -4 -140 -68.5t-45 -144.5z" />
    <glyph glyph-name="agrave" unicode="&#xe0;" horiz-adv-x="1311" 
d="M594 1578l205 -340h-127l-295 340h217zM614 869q-145 -7 -227.5 -104.5t-83.5 -202.5q0 -118 78 -225.5t237 -114.5q149 6 230 106t82 226q-1 108 -82.5 208t-233.5 107zM602 1119q111 1 201 -38.5t155 -125.5v131h242v-1090h-242v136q-44 -80 -128 -120t-224 -41
q-274 12 -417 186.5t-144 388.5q0 200 138.5 380.5t418.5 192.5z" />
    <glyph glyph-name="aacute" unicode="&#xe1;" horiz-adv-x="1311" 
d="M713 1578h217l-295 -340h-127zM614 869q-145 -7 -227.5 -104.5t-83.5 -202.5q0 -118 78 -225.5t237 -114.5q149 6 230 106t82 226q-1 108 -82.5 208t-233.5 107zM602 1119q111 1 201 -38.5t155 -125.5v131h242v-1090h-242v136q-44 -80 -128 -120t-224 -41
q-274 12 -417 186.5t-144 388.5q0 200 138.5 380.5t418.5 192.5z" />
    <glyph glyph-name="acircumflex" unicode="&#xe2;" horiz-adv-x="1311" 
d="M614 869q-145 -7 -227.5 -104.5t-83.5 -202.5q0 -118 78 -225.5t237 -114.5q149 6 230 106t82 226q-1 108 -82.5 208t-233.5 107zM602 1119q111 1 201 -38.5t155 -125.5v131h242v-1090h-242v136q-44 -80 -128 -120t-224 -41q-274 12 -417 186.5t-144 388.5
q0 200 138.5 380.5t418.5 192.5zM651 1443l-168 -209h-127l189 344h213l188 -344h-127z" />
    <glyph glyph-name="atilde" unicode="&#xe3;" horiz-adv-x="1311" 
d="M758 1304q-67 3 -118 20.5t-99 20.5q-39 0 -57.5 -17.5t-32.5 -48.5h-95q7 78 53 143.5t132 69.5q65 -3 123.5 -22.5t101.5 -22.5q37 1 60.5 21.5t29.5 52.5h94q-15 -81 -53 -147t-139 -70zM614 869q-145 -7 -227.5 -104.5t-83.5 -202.5q0 -118 78 -225.5t237 -114.5
q149 6 230 106t82 226q-1 108 -82.5 208t-233.5 107zM602 1119q111 1 201 -38.5t155 -125.5v131h242v-1090h-242v136q-44 -80 -128 -120t-224 -41q-274 12 -417 186.5t-144 388.5q0 200 138.5 380.5t418.5 192.5z" />
    <glyph glyph-name="adieresis" unicode="&#xe4;" horiz-adv-x="1311" 
d="M377 1508h201v-225h-201v225zM725 1283v225h201v-225h-201zM614 869q-145 -7 -227.5 -104.5t-83.5 -202.5q0 -118 78 -225.5t237 -114.5q149 6 230 106t82 226q-1 108 -82.5 208t-233.5 107zM602 1119q111 1 201 -38.5t155 -125.5v131h242v-1090h-242v136
q-44 -80 -128 -120t-224 -41q-274 12 -417 186.5t-144 388.5q0 200 138.5 380.5t418.5 192.5z" />
    <glyph glyph-name="aring" unicode="&#xe5;" horiz-adv-x="1311" 
d="M618 1635q101 -4 162.5 -71.5t63.5 -157.5q-1 -87 -61 -154t-169 -71q-100 4 -161.5 71t-63.5 154q1 87 62 156t167 73zM614 1517q-49 -2 -77 -36.5t-29 -70.5q0 -42 29 -75.5t81 -35.5q50 2 78.5 37t28.5 74q-1 44 -32 75t-79 32zM614 869q-145 -7 -227.5 -104.5
t-83.5 -202.5q0 -118 78 -225.5t237 -114.5q149 6 230 106t82 226q-1 108 -82.5 208t-233.5 107zM602 1119q111 1 201 -38.5t155 -125.5v131h242v-1090h-242v136q-44 -80 -128 -120t-224 -41q-274 12 -417 186.5t-144 388.5q0 200 138.5 380.5t418.5 192.5z" />
    <glyph glyph-name="ae" unicode="&#xe6;" horiz-adv-x="2114" 
d="M1155 1086v-163q51 79 140.5 136t195.5 60q296 -13 435 -189t138 -364v-102h-876q6 -99 81 -174.5t222 -79.5q83 -1 148 30t114 101h275q-55 -152 -188 -258t-353 -112q-117 0 -198.5 48t-133.5 154v-172h-192v176q-39 -90 -121.5 -142.5t-223.5 -54.5
q-283 11 -427.5 184t-145.5 386q0 200 140 378.5t425 190.5q134 -1 218 -52.5t135 -147.5v167h192zM926 554q-1 108 -81.5 208t-226.5 107q-148 -7 -231 -104.5t-84 -202.5q-1 -112 75.5 -218t235.5 -114q149 5 230 102t82 222zM1794 661q-27 106 -108.5 167t-190.5 62
q-112 -2 -191 -64t-108 -165h598z" />
    <glyph glyph-name="ccedilla" unicode="&#xe7;" horiz-adv-x="1237" 
d="M45 546q0 200 147.5 380.5t442.5 192.5q198 -3 345 -115.5t191 -302.5h-270q-39 70 -105.5 120t-172.5 52q-160 -7 -238 -111t-78 -216q1 -123 83 -222.5t237 -105.5q113 1 178 49.5t92 126.5h270q-32 -169 -171.5 -292.5t-368.5 -130.5v-69h32q116 -1 169.5 -51
t52.5 -130q1 -95 -61 -145t-193 -51q-61 2 -136.5 15t-130.5 26v115q72 -18 136.5 -29t113.5 -12q63 1 87.5 19.5t23.5 57.5q-1 47 -32 63.5t-79 14.5h-69v180q-254 46 -375.5 220.5t-120.5 350.5z" />
    <glyph glyph-name="egrave" unicode="&#xe8;" horiz-adv-x="1237" 
d="M557 1578l205 -340h-127l-295 340h217zM918 661q-27 106 -108.5 167t-191.5 62q-112 -2 -194 -64t-109 -165h603zM602 206q92 0 159 32.5t116 102.5h274q-55 -152 -188 -258t-353 -112q-277 13 -420.5 192.5t-144.5 382.5q3 208 152.5 385t416.5 188
q259 -11 414.5 -176.5t159.5 -351.5v-127h-881q4 -99 81.5 -176.5t213.5 -81.5z" />
    <glyph glyph-name="eacute" unicode="&#xe9;" horiz-adv-x="1237" 
d="M676 1578h217l-295 -340h-127zM918 661q-27 106 -108.5 167t-191.5 62q-112 -2 -194 -64t-109 -165h603zM602 206q92 0 159 32.5t116 102.5h274q-55 -152 -188 -258t-353 -112q-277 13 -420.5 192.5t-144.5 382.5q3 208 152.5 385t416.5 188q259 -11 414.5 -176.5
t159.5 -351.5v-127h-881q4 -99 81.5 -176.5t213.5 -81.5z" />
    <glyph glyph-name="ecircumflex" unicode="&#xea;" horiz-adv-x="1237" 
d="M782 1234l-168 209l-168 -209h-127l189 344h213l188 -344h-127zM918 661q-27 106 -108.5 167t-191.5 62q-112 -2 -194 -64t-109 -165h603zM602 206q92 0 159 32.5t116 102.5h274q-55 -152 -188 -258t-353 -112q-277 13 -420.5 192.5t-144.5 382.5q3 208 152.5 385
t416.5 188q259 -11 414.5 -176.5t159.5 -351.5v-127h-881q4 -99 81.5 -176.5t213.5 -81.5z" />
    <glyph glyph-name="edieresis" unicode="&#xeb;" horiz-adv-x="1237" 
d="M340 1508h201v-225h-201v225zM688 1283v225h201v-225h-201zM315 661h603q-27 106 -108.5 167t-191.5 62q-112 -2 -194 -64t-109 -165zM307 464q4 -99 81.5 -176.5t213.5 -81.5q92 0 159 32.5t116 102.5h274q-55 -152 -188 -258t-353 -112q-277 13 -420.5 192.5
t-144.5 382.5q3 208 152.5 385t416.5 188q259 -11 414.5 -176.5t159.5 -351.5v-127h-881z" />
    <glyph glyph-name="igrave" unicode="&#xec;" horiz-adv-x="479" 
d="M360 1086v-1086h-245v1086h245zM-34 1578h214l205 -340h-127z" />
    <glyph glyph-name="iacute" unicode="&#xed;" horiz-adv-x="479" 
d="M115 1086h245v-1086h-245v1086zM516 1578l-295 -340h-127l205 340h217z" />
    <glyph glyph-name="icircumflex" unicode="&#xee;" horiz-adv-x="479" 
d="M360 1086v-1086h-245v1086h245zM406 1234l-168 209l-168 -209h-124l185 344h213l188 -344h-126z" />
    <glyph glyph-name="idieresis" unicode="&#xef;" horiz-adv-x="479" 
d="M115 1086h245v-1086h-245v1086zM-34 1283v225h198v-225h-198zM311 1283v225h201v-225h-201z" />
    <glyph glyph-name="eth" unicode="&#xf0;" horiz-adv-x="1237" 
d="M856 898q-22 54 -62 114.5t-89 110.5l-295 -106l-58 151l197 70q-23 16 -55 32.5t-64 28.5l78 160q57 -25 124 -59t130 -80l287 102l57 -159l-201 -74q114 -133 174 -299.5t60 -360.5q3 -204 -120.5 -375t-412.5 -183q-243 11 -373 166t-131 339q4 201 144.5 347
t371.5 153q68 0 127 -20.5t111 -57.5zM614 767q-138 -5 -208 -90.5t-70 -192.5q-1 -115 67.5 -202.5t214.5 -92.5q144 4 212 90.5t67 204.5q-1 117 -74 198.5t-209 84.5z" />
    <glyph glyph-name="eth" unicode="&#x111;" horiz-adv-x="1237" 
d="M856 898q-22 54 -62 114.5t-89 110.5l-295 -106l-58 151l197 70q-23 16 -55 32.5t-64 28.5l78 160q57 -25 124 -59t130 -80l287 102l57 -159l-201 -74q114 -133 174 -299.5t60 -360.5q3 -204 -120.5 -375t-412.5 -183q-243 11 -373 166t-131 339q4 201 144.5 347
t371.5 153q68 0 127 -20.5t111 -57.5zM614 767q-138 -5 -208 -90.5t-70 -192.5q-1 -115 67.5 -202.5t214.5 -92.5q144 4 212 90.5t67 204.5q-1 117 -74 198.5t-209 84.5z" />
    <glyph glyph-name="ntilde" unicode="&#xf1;" horiz-adv-x="1188" 
d="M700 1304q-66 3 -117.5 20.5t-99.5 20.5q-38 0 -57 -17.5t-33 -48.5h-94q6 78 52 143.5t132 69.5q65 -3 123.5 -22.5t102.5 -22.5q37 1 60.5 21.5t29.5 52.5h94q-15 -81 -53 -147t-140 -70zM115 1078h250v-123q45 66 127.5 110t179.5 46q197 -7 300.5 -135t104.5 -295
v-681h-250v579q2 117 -46.5 201.5t-178.5 88.5q-130 -6 -184.5 -103t-52.5 -216v-550h-250v1078z" />
    <glyph glyph-name="ograve" unicode="&#xf2;" horiz-adv-x="1241" 
d="M344 1578h217l205 -340h-127zM618 873q-162 -6 -237 -106t-74 -225q0 -125 76 -222t235 -102q170 6 242 108.5t70 231.5q-1 125 -81 217.5t-231 97.5zM627 1119q285 -13 425 -196t140 -377q1 -205 -143.5 -383.5t-442.5 -191.5q-271 14 -415.5 194t-145.5 377
q1 213 151 389.5t431 187.5z" />
    <glyph glyph-name="oacute" unicode="&#xf3;" horiz-adv-x="1241" 
d="M680 1578h217l-295 -340h-127zM618 873q-162 -6 -237 -106t-74 -225q0 -125 76 -222t235 -102q170 6 242 108.5t70 231.5q-1 125 -81 217.5t-231 97.5zM627 1119q285 -13 425 -196t140 -377q1 -205 -143.5 -383.5t-442.5 -191.5q-271 14 -415.5 194t-145.5 377
q1 213 151 389.5t431 187.5z" />
    <glyph glyph-name="ocircumflex" unicode="&#xf4;" horiz-adv-x="1241" 
d="M618 873q-162 -6 -237 -106t-74 -225q0 -125 76 -222t235 -102q170 6 242 108.5t70 231.5q-1 125 -81 217.5t-231 97.5zM627 1119q285 -13 425 -196t140 -377q1 -205 -143.5 -383.5t-442.5 -191.5q-271 14 -415.5 194t-145.5 377q1 213 151 389.5t431 187.5zM786 1234
l-168 209l-167 -209h-127l188 344h213l188 -344h-127z" />
    <glyph glyph-name="otilde" unicode="&#xf5;" horiz-adv-x="1241" 
d="M725 1304q-67 3 -118 20.5t-99 20.5q-39 0 -57.5 -17.5t-32.5 -48.5h-94q6 78 52 143.5t132 69.5q65 -3 123.5 -22.5t101.5 -22.5q37 1 60.5 21.5t29.5 52.5h95q-15 -81 -53.5 -147t-139.5 -70zM618 873q-162 -6 -237 -106t-74 -225q0 -125 76 -222t235 -102
q170 6 242 108.5t70 231.5q-1 125 -81 217.5t-231 97.5zM627 1119q285 -13 425 -196t140 -377q1 -205 -143.5 -383.5t-442.5 -191.5q-271 14 -415.5 194t-145.5 377q1 213 151 389.5t431 187.5z" />
    <glyph glyph-name="odieresis" unicode="&#xf6;" horiz-adv-x="1241" 
d="M344 1508h201v-225h-201v225zM692 1283v225h201v-225h-201zM618 873q-162 -6 -237 -106t-74 -225q0 -125 76 -222t235 -102q170 6 242 108.5t70 231.5q-1 125 -81 217.5t-231 97.5zM627 1119q285 -13 425 -196t140 -377q1 -205 -143.5 -383.5t-442.5 -191.5
q-271 14 -415.5 194t-145.5 377q1 213 151 389.5t431 187.5z" />
    <glyph glyph-name="divide" unicode="&#xf7;" horiz-adv-x="1700" 
d="M254 521v164h1188v-164h-1188zM713 984q1 52 39 92.5t100 42.5q65 -3 98 -46t33 -89q0 -51 -34.5 -92t-104.5 -43q-62 2 -96 43t-35 92zM713 222q1 52 39 92.5t100 42.5q65 -3 98 -45.5t33 -89.5q0 -51 -34.5 -92t-104.5 -43q-62 2 -96 43t-35 92z" />
    <glyph glyph-name="oslash" unicode="&#xf8;" horiz-adv-x="1241" 
d="M45 546q2 224 153 394t420 179q86 0 160 -20t135 -58l160 189l148 -119l-164 -197q68 -74 101.5 -169t33.5 -211q-1 -213 -152 -382.5t-446 -180.5q-79 1 -144 20t-126 51l-164 -185l-140 123l160 189q-65 74 -100 171t-35 206zM754 849q-27 12 -57.5 20.5t-69.5 8.5
q-169 -6 -247 -106.5t-77 -229.5q0 -38 11 -84.5t38 -87.5zM889 718l-402 -475q25 -13 59 -21t68 -8q154 4 234.5 100.5t81.5 235.5q1 40 -6.5 82.5t-34.5 85.5z" />
    <glyph glyph-name="ugrave" unicode="&#xf9;" horiz-adv-x="1188" 
d="M537 1578l204 -340h-127l-295 340h218zM1073 1086v-1086h-246v120q-43 -68 -121 -107.5t-186 -41.5q-211 8 -313 134.5t-101 292.5v688h246v-585q-2 -118 49.5 -202.5t184.5 -88.5q136 6 189.5 103t51.5 216v557h246z" />
    <glyph glyph-name="uacute" unicode="&#xfa;" horiz-adv-x="1188" 
d="M655 1578h217l-294 -340h-127zM1073 1086v-1086h-246v120q-43 -68 -121 -107.5t-186 -41.5q-211 8 -313 134.5t-101 292.5v688h246v-585q-2 -118 49.5 -202.5t184.5 -88.5q136 6 189.5 103t51.5 216v557h246z" />
    <glyph glyph-name="ucircumflex" unicode="&#xfb;" horiz-adv-x="1188" 
d="M1073 1086v-1086h-246v120q-43 -68 -121 -107.5t-186 -41.5q-211 8 -313 134.5t-101 292.5v688h246v-585q-2 -118 49.5 -202.5t184.5 -88.5q136 6 189.5 103t51.5 216v557h246zM594 1443l-168 -209h-127l188 344h213l189 -344h-127z" />
    <glyph glyph-name="udieresis" unicode="&#xfc;" horiz-adv-x="1188" 
d="M319 1283v225h201v-225h-201zM668 1283v225h200v-225h-200zM1073 0h-246v120q-43 -68 -121 -107.5t-186 -41.5q-211 8 -313 134.5t-101 292.5v688h246v-585q-2 -118 49.5 -202.5t184.5 -88.5q136 6 189.5 103t51.5 216v557h246v-1086z" />
    <glyph glyph-name="yacute" unicode="&#xfd;" horiz-adv-x="1044" 
d="M799 1578l-295 -340h-127l205 340h217zM373 26l-395 1060h264l266 -765l299 765h262l-590 -1442h-258z" />
    <glyph glyph-name="thorn" unicode="&#xfe;" horiz-adv-x="1315" 
d="M348 -356h-250v1799h250v-443q66 53 151 85.5t206 33.5q271 -12 409.5 -193t138.5 -384q-2 -216 -149.5 -388t-419.5 -183q-121 2 -199 32t-137 80v-439zM672 869q-151 -5 -231 -101t-81 -218q0 -123 78.5 -224.5t229.5 -107.5q151 5 236.5 103t86.5 229q0 114 -81 213
t-238 106z" />
    <glyph glyph-name="ydieresis" unicode="&#xff;" horiz-adv-x="1044" 
d="M246 1283v225h200v-225h-200zM594 1283v225h201v-225h-201zM373 26l-395 1060h264l266 -765l299 765h262l-590 -1442h-258z" />
    <glyph glyph-name="dotlessi" unicode="&#x131;" horiz-adv-x="479" 
d="M115 0v1086h245v-1086h-245z" />
    <glyph glyph-name="OE" unicode="&#x152;" horiz-adv-x="2142" 
d="M348 734q3 -175 124 -320.5t327 -154.5q225 9 339.5 152.5t114.5 306.5q0 171 -111.5 312.5t-330.5 150.5q-220 -8 -340.5 -143.5t-122.5 -303.5zM57 730q3 291 199.5 511t546.5 231q135 -1 248 -50.5t202 -142.5v164h770v-250h-499v-336h499v-246h-499v-364h499v-247
h-770v165q-85 -93 -208.5 -142.5t-258.5 -51.5q-360 17 -544 252.5t-185 506.5z" />
    <glyph glyph-name="oe" unicode="&#x153;" horiz-adv-x="2114" 
d="M614 873q-148 -4 -229 -99t-82 -228q-1 -114 73.5 -213.5t233.5 -106.5q173 6 245.5 104.5t70.5 223.5q-1 128 -81 221t-231 98zM45 550q2 210 153 384t420 185q149 -2 255 -58t188 -147q77 88 187.5 145.5t246.5 59.5q261 -11 413.5 -176.5t155.5 -359.5v-119h-876
q3 -97 78.5 -173.5t220.5 -80.5q98 1 162.5 36.5t103.5 94.5h275q-47 -136 -186.5 -251t-330.5 -123q-162 4 -284.5 66t-173.5 148q-66 -88 -177 -145.5t-253 -60.5q-281 13 -429 192.5t-149 382.5zM1794 661q-20 92 -98 159t-205 70q-115 -3 -193.5 -70t-101.5 -159h598z
" />
    <glyph glyph-name="Scaron" unicode="&#x160;" horiz-adv-x="979" 
d="M631 1058q0 67 -35.5 116.5t-112.5 51.5q-77 -3 -116 -51t-39 -109q0 -82 49 -120t126 -59.5t161 -51t155 -97.5q50 -47 74.5 -112.5t24.5 -165.5q2 -189 -108.5 -334.5t-354.5 -154.5q-212 9 -317 149.5t-105 322.5h258q-2 -83 36.5 -150t135.5 -71q103 3 144.5 61.5
t39.5 135.5q-2 92 -48 133t-116.5 59.5t-147.5 44t-142 86.5q-61 62 -88 132.5t-27 150.5q-2 162 95.5 300t322.5 147q209 -9 300 -141t89 -273h-254zM319 1926l168 -209l168 209h127l-188 -344h-213l-188 344h126z" />
    <glyph glyph-name="scaron" unicode="&#x161;" horiz-adv-x="831" 
d="M414 1369l168 209h127l-189 -344h-213l-188 344h127zM279 353q-1 -62 28.5 -117t102.5 -59q65 2 98 39t33 88q-4 78 -69.5 114t-153 67.5t-153 98t-67.5 203.5q-1 110 79 217t257 115q176 -7 247.5 -107.5t68.5 -211.5h-226q1 47 -21.5 82t-80.5 37q-49 -2 -73.5 -34.5
t-24.5 -68.5q2 -69 67.5 -103t152.5 -68t154.5 -105.5t71.5 -218.5q1 -127 -86.5 -234.5t-273.5 -115.5q-181 7 -271 119.5t-90 262.5h230z" />
    <glyph glyph-name="Ydieresis" unicode="&#x178;" horiz-adv-x="1004" 
d="M-54 1443h308l250 -627l250 627h303l-418 -922v-521h-279v517zM225 1631v226h201v-226h-201zM573 1857h201v-226h-201v226z" />
    <glyph glyph-name="florin" unicode="&#x192;" horiz-adv-x="1184" 
d="M455 652h-242l16 230h250q-3 107 20 257.5t103 241.5q48 46 130 68.5t173 22.5h115l-21 -250h-90q-26 0 -60 -11.5t-54 -29.5q-39 -50 -51 -151.5t-11 -147.5h262l-20 -230h-262l-66 -750q-8 -140 -95 -228t-261 -92h-164l20 250h74q88 -2 128.5 37.5t51.5 156.5z" />
    <glyph glyph-name="circumflex" unicode="&#x2c6;" 
d="M676 1234l-168 209l-168 -209h-127l188 344h213l189 -344h-127z" />
    <glyph glyph-name="caron" unicode="&#x2c7;" 
d="M221 1439h58l233 -213l229 213h58l-230 -344h-118z" />
    <glyph glyph-name="breve" unicode="&#x2d8;" 
d="M262 1402q29 -92 94.5 -117t147.5 -22q81 -3 146.5 22t94.5 117h46q-12 -110 -82.5 -186.5t-204.5 -79.5q-135 3 -205 79.5t-82 186.5h45z" />
    <glyph glyph-name="dotaccent" unicode="&#x2d9;" 
d="M512 1140q-44 1 -74.5 31.5t-31.5 74.5q1 45 31.5 75.5t74.5 31.5q44 -1 74.5 -31.5t31.5 -75.5q-1 -44 -31.5 -74.5t-74.5 -31.5z" />
    <glyph glyph-name="tilde" unicode="&#x2dc;" 
d="M807 1521q-15 -81 -53 -147t-140 -70q-66 3 -117.5 20.5t-99.5 20.5q-38 0 -57 -17.5t-33 -48.5h-94q6 78 52 143.5t132 69.5q65 -3 123.5 -22.5t102.5 -22.5q37 1 60.5 21.5t29.5 52.5h94z" />
    <glyph glyph-name="pi" unicode="&#x3c0;" horiz-adv-x="1364" 
d="M188 755h-168l29 139q21 78 88.5 126.5t186.5 49.5h983l-41 -184h-189l-106 -525l-13 -98q-1 -50 22 -79.5t81 -30.5q19 0 45.5 2.5t52.5 5.5l-37 -165q-31 -5 -64 -8t-59 -4q-140 1 -205.5 47t-64.5 138q0 22 2.5 46.5t5.5 55.5l115 615h-270l-172 -886h-222l172 886
h-57q-37 -1 -64.5 -25t-37.5 -53z" />
    <glyph glyph-name="endash" unicode="&#x2013;" 
d="M0 636h1016v-188h-1016v188z" />
    <glyph glyph-name="emdash" unicode="&#x2014;" horiz-adv-x="2040" 
d="M0 636h2036v-188h-2036v188z" />
    <glyph glyph-name="quoteleft" unicode="&#x2018;" horiz-adv-x="487" 
d="M291 1213h82v-270h-250v283q-2 101 54 172t196 74v-140q-62 -9 -73.5 -40.5t-8.5 -78.5z" />
    <glyph glyph-name="quoteright" unicode="&#x2019;" horiz-adv-x="487" 
d="M209 1173h-86v270h250v-283q2 -101 -54.5 -172t-195.5 -74v140q62 10 75.5 41t10.5 78z" />
    <glyph glyph-name="quotesinglbase" unicode="&#x201a;" horiz-adv-x="508" 
d="M119 95q0 45 29.5 77.5t93.5 33.5q60 1 108 -42t51 -138q1 -102 -65 -191.5t-209 -170.5l-25 29q89 59 154 126.5t68 143.5q0 25 -10 32t-31 6q-13 0 -27.5 -0.5t-30.5 -0.5q-47 0 -76 22t-30 73z" />
    <glyph glyph-name="quotedblleft" unicode="&#x201c;" horiz-adv-x="864" 
d="M668 1213h86v-270h-254v283q-2 101 56 172t198 74v-140q-62 -9 -75.5 -40.5t-10.5 -78.5zM291 1213h86v-270h-254v283q-2 101 56 172t198 74v-140q-62 -9 -75.5 -40.5t-10.5 -78.5z" />
    <glyph glyph-name="quotedblright" unicode="&#x201d;" horiz-adv-x="864" 
d="M209 1173h-86v270h250v-283q2 -99 -54.5 -171t-195.5 -75v140q62 10 75.5 41t10.5 78zM586 1173h-86v270h250v-283q2 -101 -54.5 -172t-195.5 -74v140q62 10 75.5 41t10.5 78z" />
    <glyph glyph-name="quotedblbase" unicode="&#x201e;" horiz-adv-x="864" 
d="M172 0h-86v267h250v-279q2 -101 -54.5 -173.5t-195.5 -76.5v143q62 11 75.5 42.5t10.5 76.5zM549 0h-86v267h250v-279q2 -101 -54.5 -173.5t-195.5 -76.5v143q62 11 75.5 42.5t10.5 76.5z" />
    <glyph glyph-name="dagger" unicode="&#x2020;" 
d="M61 833v184h332v426h234v-426h331v-184h-331v-1066h-234v1066h-332z" />
    <glyph glyph-name="daggerdbl" unicode="&#x2021;" 
d="M61 882v184h332v377h234v-377h331v-184h-331v-557h331v-185h-331v-369h-234v369h-332v185h332v557h-332z" />
    <glyph glyph-name="bullet" unicode="&#x2022;" horiz-adv-x="1204" 
d="M598 1046q134 -5 213.5 -92.5t81.5 -202.5q-2 -115 -81.5 -201t-213.5 -90q-131 4 -210 90t-81 201q2 115 81 202.5t210 92.5z" />
    <glyph glyph-name="ellipsis" unicode="&#x2026;" horiz-adv-x="2032" 
d="M213 267h250v-267h-250v267zM889 267h250v-267h-250v267zM1565 267h250v-267h-250v267z" />
    <glyph glyph-name="perthousand" unicode="&#x2030;" horiz-adv-x="2638" 
d="M430 -25l778 1488h156l-778 -1488h-156zM618 1086q0 72 -42 130.5t-125 62.5q-81 -4 -126 -59.5t-46 -120.5q1 -71 44 -130t123 -63q84 3 128 57.5t44 122.5zM94 1095q0 136 88.5 248.5t263.5 119.5q184 -7 271 -119t86 -245q1 -142 -85 -256t-272 -121
q-180 6 -266.5 118.5t-85.5 254.5zM1339 -25q-175 8 -263.5 119t-88.5 247q-1 142 85.5 256t266.5 121q186 -7 272 -121t85 -256q1 -133 -86 -245.5t-271 -120.5zM1171 337q1 -65 46.5 -120.5t125.5 -59.5q83 4 125.5 62.5t42.5 129.5q0 68 -44 125t-128 60
q-80 -4 -123.5 -65t-44.5 -132zM2195 718q186 -7 272 -121t85 -256q1 -133 -86 -245.5t-271 -120.5q-175 8 -263.5 119t-88.5 247q-1 142 85.5 256t266.5 121zM2195 534q-80 -4 -123 -65t-44 -132q1 -65 46 -120.5t126 -59.5q83 4 125 62.5t42 129.5q0 68 -44 125t-128 60z
" />
    <glyph glyph-name="guilsinglleft" unicode="&#x2039;" horiz-adv-x="721" 
d="M127 542l246 315h192l-241 -315l241 -320h-196z" />
    <glyph glyph-name="guilsinglright" unicode="&#x203a;" horiz-adv-x="721" 
d="M348 222h-196l245 320l-245 315h196l242 -315z" />
    <glyph glyph-name="trademark" unicode="&#x2122;" horiz-adv-x="1700" 
d="M393 910v447h-168v90h459v-90h-168v-447h-123zM803 1447h172l139 -361l131 361h168v-537h-110v435l-164 -435h-58l-168 435v-435h-110v537z" />
    <glyph glyph-name="Omega" unicode="&#x2126;" horiz-adv-x="1565" 
d="M340 804q-1 -168 78.5 -328t245.5 -254v-222h-594v206h303q-144 126 -212 275.5t-67 322.5q-3 253 159 467.5t521 228.5q387 -16 540.5 -240.5t147.5 -467.5q-1 -177 -75 -327t-207 -259h311l-4 -206h-594v222q165 99 244.5 254.5t79.5 327.5q4 168 -95.5 322t-347.5 165
q-239 -10 -338 -163.5t-96 -323.5z" />
    <glyph glyph-name="partialdiff" unicode="&#x2202;" 
d="M414 1078q-34 0 -54 15.5t-20 46.5q2 60 58 102.5t147 44.5q150 -1 247.5 -138t100.5 -402q-3 -317 -126 -539t-329 -233q-137 4 -219 102t-84 260q3 194 103.5 310.5t257.5 119.5q88 1 144.5 -42t92.5 -146q16 59 22.5 138.5t6.5 164.5q0 169 -33 254.5t-98 85.5
q-53 -9 -101 -72t-116 -72zM524 710q-101 -1 -171.5 -117.5t-73.5 -341.5q3 -136 55 -188t117 -50q123 6 186 137.5t63 321.5q-1 109 -48 173t-128 65z" />
    <glyph glyph-name="Delta" unicode="&#x2206;" horiz-adv-x="1425" 
d="M733 1431l651 -1431h-1335l651 1431h33zM647 1099l-450 -1008h905z" />
    <glyph glyph-name="product" unicode="&#x220f;" horiz-adv-x="1700" 
d="M66 1549h1564v-82h-180v-1868h180v-82h-536v82h168v1868h-828v-1868h168v-82h-536v82h180v1868h-180v82z" />
    <glyph glyph-name="Sigma" unicode="&#x2211;" horiz-adv-x="1200" 
d="M606 755l-524 524v180h1044v-209h-704l483 -499l-520 -545h770v-206h-1102v173z" />
    <glyph glyph-name="minus" unicode="&#x2212;" horiz-adv-x="1700" 
d="M1442 521h-1188v164h1188v-164z" />
    <glyph glyph-name="fraction" unicode="&#x2215;" horiz-adv-x="340" 
d="M676 1435l-923 -1460h-90l923 1460h90z" />
    <glyph glyph-name="smallbullet" unicode="&#x2219;" horiz-adv-x="590" 
d="M160 722q1 46 36.5 87t94.5 44q68 -2 101.5 -42.5t33.5 -88.5q0 -55 -33 -96t-98 -43q-62 2 -98 42t-37 97z" />
    <glyph glyph-name="radical" unicode="&#x221a;" horiz-adv-x="1319" 
d="M90 775l-24 90l303 107l245 -684l508 1372h193v-107h-107l-590 -1594h-81l-316 865z" />
    <glyph glyph-name="infinity" unicode="&#x221e;" horiz-adv-x="1700" 
d="M299 603q1 -89 52.5 -153.5t144.5 -67.5q99 2 162.5 76.5t119.5 193.5q-38 70 -97.5 118t-156.5 50q-103 -3 -163.5 -65.5t-61.5 -151.5zM516 996q106 -2 183.5 -72.5t140.5 -189.5q47 97 124 179t199 87q165 -9 244.5 -136.5t79.5 -268.5q1 -142 -73 -260t-230 -125
q-107 2 -184 71t-140 187q-48 -97 -125 -177t-198 -85q-166 9 -245.5 136.5t-78.5 268.5q-1 143 73 260.5t230 124.5zM1401 603q-1 89 -52.5 153.5t-144.5 67.5q-99 -2 -162.5 -76.5t-119.5 -193.5q38 -70 97 -118t157 -50q103 3 163.5 65.5t61.5 151.5z" />
    <glyph glyph-name="integral" unicode="&#x222b;" 
d="M717 1435q-81 -14 -103.5 -269.5t-19.5 -582.5q2 -425 -86 -684.5t-295 -267.5q-81 2 -124.5 40t-43.5 100q0 47 26 71t72 23q80 -7 88.5 -64.5t63.5 -66.5q83 11 104.5 253.5t18.5 599.5q-2 411 86 676t295 274q80 -1 123.5 -38.5t44.5 -100.5q0 -46 -26 -68t-73 -22
q-79 8 -87.5 63.5t-63.5 63.5z" />
    <glyph glyph-name="approxequal" unicode="&#x2248;" horiz-adv-x="1700" 
d="M176 624v180q76 63 184 102.5t218 40.5q79 0 151 -19.5t138.5 -46t134 -47t141.5 -22.5q110 2 202 48.5t175 107.5v-185q-77 -54 -171 -95.5t-210 -43.5q-76 2 -145.5 22.5t-138.5 47t-141.5 46t-156.5 19.5q-109 -4 -209 -53.5t-172 -101.5zM176 415q79 63 185.5 104.5
t216.5 42.5q79 0 151 -19.5t138.5 -46t134 -47t141.5 -22.5q110 2 202 46.5t175 105.5v-181q-77 -54 -171 -95.5t-210 -43.5q-76 2 -144.5 22.5t-136 47t-140.5 46t-157 19.5q-109 -4 -211 -53.5t-174 -101.5v176z" />
    <glyph glyph-name="notequal" unicode="&#x2260;" horiz-adv-x="1700" 
d="M823 472h619v-131h-705l-245 -315l-107 82l188 233h-319v131h401l209 262h-610v131h700l246 316l98 -78l-180 -238h324v-131h-414z" />
    <glyph glyph-name="lessequal" unicode="&#x2264;" horiz-adv-x="1700" 
d="M1438 1037l-889 -286l889 -287v-172l-1180 389v139l1180 389v-172zM258 169h1180v-164h-1180v164z" />
    <glyph glyph-name="greaterequal" unicode="&#x2265;" horiz-adv-x="1700" 
d="M258 5v164h1180v-164h-1180zM258 1037v172l1180 -389v-139l-1180 -389v172l889 287z" />
    <glyph glyph-name="lozenge" unicode="&#x25ca;" horiz-adv-x="2040" 
d="M434 673l578 737l590 -733l-590 -734zM1016 1230l-438 -553l438 -553l446 553z" />
  </font>
</defs>
</svg>
